<?xml version="1.0" standalone="no"?>
<!DOCTYPE svg PUBLIC "-//W3C//DTD SVG 20010904//EN"
 "http://www.w3.org/TR/2001/REC-SVG-20010904/DTD/svg10.dtd">
<svg version="1.0" xmlns="http://www.w3.org/2000/svg"
 width="300.000000pt" height="288.000000pt" viewBox="0 0 300.000000 288.000000"
 preserveAspectRatio="xMidYMid meet">
<metadata>
Created by potrace 1.10, written by Peter Selinger 2001-2011
</metadata>
<g transform="translate(0.000000,288.000000) scale(0.100000,-0.100000)"
fill="#000000" stroke="none">
<path d="M1435 2753 c-11 -3 -24 -9 -29 -14 -6 -5 -15 -4 -23 2 -7 7 -30 9
-55 5 -24 -3 -63 -8 -88 -10 -25 -2 -71 -14 -102 -26 -56 -21 -58 -23 -58 -57
0 -25 5 -36 18 -40 14 -3 17 -12 14 -35 -4 -28 -3 -30 25 -27 17 2 38 -3 48
-11 15 -13 19 -12 36 9 15 18 19 20 19 7 0 -25 -47 -43 -71 -28 -28 18 -49 15
-49 -7 0 -33 22 -41 83 -31 32 5 63 12 69 16 7 5 35 9 63 10 27 1 93 4 145 5
87 4 95 6 98 25 2 11 -4 27 -13 34 -13 11 -18 10 -33 -4 -10 -9 -31 -16 -45
-16 -21 0 -27 5 -27 23 1 20 2 20 11 5 12 -22 38 -23 45 -3 4 8 18 15 34 15
31 0 47 25 29 46 -6 8 -25 14 -41 14 -22 0 -28 4 -26 18 2 11 -4 18 -18 20
-16 2 -25 -4 -32 -25 l-10 -28 -1 27 c-2 50 81 69 99 23 11 -29 35 -33 48 -9
11 19 4 55 -12 66 -12 8 -119 9 -151 1z m136 -13 c20 -11 26 -45 9 -55 -6 -3
-14 5 -20 19 -8 21 -16 26 -45 26 -55 0 -75 -15 -75 -55 0 -28 4 -35 20 -35
15 0 20 7 20 25 0 14 5 25 10 25 6 0 10 -11 10 -25 0 -22 4 -25 35 -25 24 0
35 -5 35 -15 0 -10 -10 -15 -30 -15 -19 0 -33 -6 -37 -16 -6 -15 -7 -15 -19 1
-18 24 -46 12 -42 -17 2 -19 10 -24 47 -26 26 -2 47 1 51 9 4 6 13 8 19 4 9
-5 9 -10 0 -21 -17 -21 -123 -19 -145 3 -13 14 -18 15 -22 5 -7 -21 -49 -33
-76 -22 -18 6 -34 4 -62 -11 -41 -21 -109 -26 -119 -8 -10 16 4 24 17 11 31
-31 102 -3 96 38 -4 31 -28 38 -35 11 -6 -22 -23 -29 -23 -10 0 7 -12 9 -36 5
-31 -6 -35 -5 -32 11 2 10 13 19 26 21 14 2 22 10 22 22 0 24 16 34 24 15 3
-8 12 -15 21 -15 21 0 20 59 -1 67 -27 10 -92 -15 -96 -38 -4 -27 -23 -25 -23
3 0 27 52 55 120 65 40 5 45 3 45 -13 0 -17 2 -17 18 4 10 13 33 25 54 28 30
5 39 3 49 -14 13 -21 14 -21 34 -3 32 30 118 41 156 21z m-354 -75 c3 -9 2
-19 -2 -23 -4 -4 -10 -1 -12 6 -8 21 -33 13 -43 -13 -12 -33 -39 -34 -33 -1 8
38 77 62 90 31z"/>
<path d="M1317 2703 c-10 -9 -8 -126 2 -141 5 -8 17 -12 27 -10 15 2 20 14 22
58 4 70 -4 100 -27 100 -10 0 -21 -3 -24 -7z m38 -47 c8 -51 4 -78 -11 -83
-12 -4 -29 101 -19 118 13 20 24 7 30 -35z"/>
<path d="M1397 2673 c-4 -3 -7 -24 -7 -45 0 -32 3 -39 17 -36 20 4 27 29 19
64 -6 24 -17 30 -29 17z m23 -37 c0 -14 -4 -28 -10 -31 -6 -4 -10 7 -10 24 0
17 5 31 10 31 6 0 10 -11 10 -24z"/>
<path d="M1254 2656 c-10 -26 1 -71 18 -74 21 -4 31 28 19 62 -11 28 -29 34
-37 12z"/>
<path d="M1644 2733 c-20 -4 -34 -28 -34 -60 0 -7 11 -13 25 -13 16 0 25 6 25
15 0 10 10 15 34 15 37 0 59 -18 47 -39 -6 -10 -10 -9 -14 3 -8 20 -36 21 -44
1 -3 -9 -13 -15 -22 -14 -41 4 -51 -1 -51 -26 0 -20 5 -25 24 -25 15 0 26 -7
29 -20 6 -22 42 -28 50 -7 4 7 6 6 6 -5 2 -32 -68 -29 -76 3 -6 22 -38 25 -46
5 -3 -8 0 -21 6 -30 13 -16 124 -49 138 -41 4 3 24 -4 43 -16 20 -12 45 -19
56 -16 11 3 25 -2 32 -11 14 -17 110 -62 133 -62 20 0 36 33 25 50 -5 9 -22
13 -43 12 -37 -3 -64 18 -51 39 5 9 10 6 15 -9 8 -22 39 -31 39 -12 0 6 12 4
29 -4 21 -11 31 -12 40 -3 19 19 13 43 -14 55 -21 10 -24 17 -19 37 9 37 -23
46 -49 14 -16 -20 -19 -21 -16 -5 10 51 91 45 97 -7 4 -33 26 -45 48 -26 13
11 14 9 9 -14 -8 -31 16 -47 39 -27 11 9 22 8 46 -5 32 -16 38 -44 11 -53 -9
-3 -11 0 -7 7 13 20 -13 42 -34 31 -12 -6 -28 -7 -44 -1 -28 11 -52 -8 -42
-34 3 -10 -1 -15 -13 -15 -53 0 -19 -65 59 -113 19 -12 49 -36 66 -54 17 -18
39 -33 48 -33 9 0 16 -6 16 -13 0 -8 22 -38 48 -67 43 -48 50 -52 70 -41 12 6
22 20 22 30 0 13 6 18 18 15 9 -2 24 0 32 6 13 8 13 13 -2 40 -14 25 -15 35
-6 50 18 29 -4 50 -33 32 -12 -8 -24 -11 -27 -7 -9 9 19 25 44 25 11 0 29 -9
39 -20 15 -16 16 -25 7 -44 -21 -46 35 -65 64 -21 15 23 15 26 -5 54 -25 35
-100 101 -115 101 -6 0 -18 14 -26 31 -8 17 -28 39 -45 48 -16 9 -38 26 -48
38 -27 34 -137 84 -158 72 -15 -8 -17 -5 -16 18 2 25 -5 31 -53 55 -30 15 -71
29 -90 30 -19 1 -48 12 -63 25 -18 14 -42 23 -63 23 -19 0 -45 6 -57 14 -23
14 -117 26 -153 19z m116 -20 c20 -3 35 -13 37 -25 6 -20 18 -24 29 -7 7 13
60 5 81 -12 7 -6 13 -20 13 -30 0 -21 15 -25 26 -8 9 15 65 5 120 -22 39 -18
45 -25 42 -48 -2 -15 -9 -26 -18 -26 -9 0 -14 8 -12 21 3 25 -14 42 -58 54
-27 8 -35 6 -56 -15 -28 -28 -30 -38 -10 -54 11 -9 17 -6 30 14 19 29 42 25
26 -5 -15 -27 -13 -30 20 -41 17 -6 30 -15 30 -19 0 -17 -19 -20 -46 -8 -22
10 -28 10 -32 0 -6 -19 -22 -14 -22 8 0 13 -7 20 -19 20 -17 0 -31 -18 -31
-39 0 -14 72 -42 91 -36 13 4 19 2 19 -9 0 -9 -9 -16 -20 -16 -32 0 -112 42
-117 61 -4 13 -13 16 -43 12 -32 -5 -43 -1 -64 20 -14 14 -28 21 -31 16 -4 -5
-18 -9 -33 -8 -27 0 -27 1 -5 11 27 13 39 46 23 62 -8 8 -15 7 -24 -6 -17 -23
-22 -23 -29 2 -3 14 -14 20 -32 20 -38 0 -26 24 13 28 20 2 32 9 32 18 0 8 5
14 10 14 6 0 10 -6 10 -14 0 -22 19 -30 35 -16 20 16 19 56 -1 64 -31 12 -92
6 -98 -9 -7 -18 -26 -20 -26 -2 0 34 58 47 140 30z m-126 -158 c3 -9 16 -20
28 -25 31 -12 6 -13 -26 0 -14 5 -26 16 -26 25 0 19 16 19 24 0z m615 -61 c39
-26 50 -39 42 -47 -19 -19 -12 -27 17 -21 38 8 85 -35 76 -70 -5 -21 -3 -23
19 -19 19 4 36 -5 71 -37 53 -49 65 -76 42 -98 -22 -22 -46 -1 -26 23 10 12 9
19 -4 40 -26 40 -60 51 -91 31 -26 -17 -33 -40 -14 -51 5 -4 18 0 28 9 23 21
36 8 14 -16 -15 -17 -15 -20 7 -43 19 -20 21 -28 11 -38 -10 -9 -16 -7 -31 11
-14 17 -25 22 -41 17 -18 -6 -20 -4 -14 14 8 27 -20 40 -41 19 -14 -13 -12
-19 11 -46 15 -18 35 -32 46 -32 24 0 25 -18 2 -27 -22 -9 -106 84 -99 110 3
12 -2 17 -16 17 -31 0 -55 17 -66 49 -8 22 -15 28 -29 25 -11 -3 -34 9 -61 31
-39 34 -55 65 -32 65 6 0 10 -9 10 -19 0 -11 4 -23 10 -26 6 -4 7 6 4 25 -6
25 -4 29 10 24 11 -4 15 -13 11 -25 -8 -25 19 -36 42 -18 14 12 15 12 11 -1
-3 -10 -17 -14 -37 -14 -33 2 -34 -10 -1 -19 24 -6 66 25 56 41 -9 15 -36 16
-36 2 0 -5 -4 -10 -10 -10 -5 0 -10 11 -10 24 0 16 -7 27 -20 31 -11 3 -20 10
-20 15 0 18 23 22 48 9 20 -11 26 -11 29 -1 9 24 30 13 25 -13 -6 -34 22 -34
44 0 19 30 10 46 -37 66 -24 9 -36 10 -50 1 -23 -15 -36 3 -18 24 17 21 51 11
118 -32z m116 -322 c29 -6 42 -21 16 -19 -29 2 -66 41 -55 59 6 9 10 6 14 -12
3 -14 14 -26 25 -28z"/>
<path d="M1825 2605 c-29 -65 -31 -90 -9 -99 24 -9 23 -10 50 49 28 61 28 98
1 103 -13 3 -24 -11 -42 -53z m55 26 c0 -23 -44 -111 -56 -111 -18 0 -18 5 8
67 12 29 28 53 35 53 7 0 13 -4 13 -9z"/>
<path d="M1760 2611 c-13 -31 -7 -51 14 -51 14 0 36 41 36 65 0 27 -37 16 -50
-14z m40 14 c0 -12 -24 -55 -32 -55 -11 0 -10 4 4 35 9 21 28 35 28 20z"/>
<path d="M1896 2578 c-20 -28 -21 -68 -1 -68 17 0 35 30 35 59 0 30 -17 34
-34 9z"/>
<path d="M2220 2390 c-24 -24 -26 -50 -5 -50 8 0 24 9 35 20 24 24 26 50 5 50
-8 0 -24 -9 -35 -20z m40 1 c0 -12 -42 -42 -49 -36 -5 6 29 45 41 45 4 0 8 -4
8 -9z"/>
<path d="M2266 2351 c-49 -50 -56 -81 -18 -81 26 0 105 83 100 106 -6 33 -32
25 -82 -25z m74 21 c0 -4 -20 -27 -44 -51 -60 -59 -84 -45 -25 15 40 40 69 56
69 36z"/>
<path d="M2314 2295 c-25 -25 -25 -45 2 -45 18 0 54 36 54 55 0 23 -28 18 -56
-10z m27 -16 c-13 -11 -27 -17 -30 -13 -3 3 5 14 18 25 13 11 27 17 30 13 3
-3 -5 -14 -18 -25z"/>
<path d="M953 2671 c-33 -16 -68 -39 -79 -52 -13 -16 -31 -25 -54 -26 -23 -1
-42 -10 -56 -26 -11 -13 -32 -27 -45 -30 -14 -4 -51 -34 -83 -67 -32 -33 -62
-57 -68 -54 -15 10 -118 -102 -118 -129 0 -16 -6 -23 -22 -24 -25 -2 -68 -45
-68 -68 0 -8 -9 -19 -19 -25 -21 -11 -81 -123 -81 -150 0 -23 36 -54 55 -47
17 7 20 44 4 49 -8 3 -6 15 6 41 19 41 26 44 45 22 10 -13 9 -15 -9 -15 -22 0
-30 -33 -11 -45 6 -3 5 -15 -2 -31 -10 -22 -9 -28 7 -40 13 -9 22 -11 31 -3 9
7 11 5 10 -7 0 -9 7 -21 17 -28 16 -9 24 -4 58 34 22 24 43 56 46 70 2 14 14
30 25 35 11 6 27 24 37 40 9 17 20 32 26 34 5 2 31 24 57 49 50 46 59 71 33
92 -19 15 -45 -3 -45 -31 0 -19 -38 -51 -52 -43 -13 8 -9 24 5 18 15 -5 44 23
33 33 -3 4 4 17 16 30 l22 23 -20 21 -20 20 -28 -22 c-20 -16 -30 -19 -39 -10
-30 30 -54 -17 -24 -48 10 -11 9 -13 -2 -9 -54 16 -29 93 30 93 18 1 45 6 59
12 22 9 25 8 28 -9 2 -11 12 -23 23 -25 11 -3 18 -12 17 -20 -2 -9 5 -20 14
-27 21 -13 72 11 121 56 16 16 36 28 44 28 8 0 27 13 42 28 16 15 33 26 38 25
6 -2 40 10 77 27 55 26 66 35 66 56 0 36 -28 42 -53 11 -28 -32 -62 -43 -71
-22 -4 12 0 14 20 9 20 -5 26 -2 30 14 3 11 17 25 30 31 27 12 31 33 10 50
-10 9 -20 9 -40 0 -23 -11 -28 -10 -40 6 -20 27 -50 12 -42 -20 4 -14 2 -25
-3 -25 -10 0 -22 40 -15 52 3 4 19 15 36 24 27 14 31 14 49 -1 34 -32 63 0 39
44 -16 31 -35 31 -97 2z m87 -6 c7 -8 9 -22 6 -31 -6 -15 -8 -15 -26 1 -32 29
-110 -3 -110 -45 0 -27 33 -61 49 -51 10 6 10 13 2 28 -15 29 0 38 19 13 14
-19 19 -20 43 -9 20 9 31 9 38 2 8 -8 2 -16 -21 -28 -20 -10 -30 -22 -26 -31
6 -16 -9 -20 -19 -4 -9 15 -35 0 -35 -21 0 -11 7 -22 15 -25 21 -9 74 15 86
38 11 19 29 16 29 -6 0 -20 -108 -69 -136 -62 -17 5 -24 2 -24 -7 0 -23 -38
-50 -70 -49 -23 0 -30 -4 -30 -18 0 -11 -19 -31 -47 -49 -48 -32 -63 -35 -71
-12 -3 8 4 10 21 6 17 -5 32 0 53 18 26 22 27 27 16 52 -14 29 -36 29 -38 -1
-1 -10 -2 -23 -3 -28 -1 -5 -8 -3 -16 4 -13 10 -19 9 -35 -5 -16 -14 -23 -16
-32 -7 -9 9 -7 17 10 35 17 18 19 26 10 35 -17 17 -2 27 17 12 12 -10 19 -10
27 -2 16 16 -9 62 -32 62 -28 0 -72 -51 -67 -78 3 -17 0 -22 -12 -20 -34 7
-23 44 29 92 41 39 56 47 76 42 19 -5 24 -3 24 14 0 23 57 63 78 55 6 -3 19
-8 27 -11 10 -4 15 0 15 13 0 25 24 47 80 72 54 25 64 25 80 6z m-311 -221 c3
-15 1 -16 -12 -6 -11 10 -17 9 -27 -3 -7 -8 -10 -21 -7 -29 3 -8 0 -19 -7 -25
-11 -9 -15 -5 -19 16 -5 22 0 33 20 51 28 26 46 25 52 -4z m-129 -59 c17 -21
4 -38 -21 -25 -24 13 -61 -9 -78 -46 -9 -22 -9 -31 4 -50 17 -26 55 -33 55
-10 0 8 -4 18 -10 21 -5 3 -10 13 -10 22 0 14 3 14 20 -2 20 -18 21 -18 43 3
13 12 29 22 35 22 18 0 14 -25 -7 -44 -10 -9 -17 -25 -14 -35 3 -13 -1 -18
-19 -17 -27 1 -31 -22 -6 -38 14 -8 23 -5 48 19 17 16 28 35 26 42 -8 19 10
25 25 7 11 -14 6 -23 -38 -65 -34 -32 -57 -47 -67 -43 -12 5 -16 0 -16 -18 0
-32 -27 -68 -52 -68 -14 0 -18 -5 -14 -16 6 -16 -13 -52 -48 -91 -20 -24 -46
-31 -46 -13 0 6 9 10 19 10 22 0 51 35 51 61 0 9 -8 23 -19 33 -17 15 -19 15
-32 0 -11 -13 -11 -18 -1 -21 19 -7 14 -23 -7 -23 -10 0 -25 -10 -34 -22 -11
-17 -18 -20 -27 -12 -9 9 -9 17 1 33 11 16 11 23 1 33 -18 18 -15 30 7 23 27
-8 36 13 15 36 -25 27 -41 24 -64 -13 -21 -35 -26 -68 -10 -68 6 0 10 -4 10
-10 0 -15 -26 -12 -39 4 -9 11 -6 26 13 67 33 72 49 91 71 83 14 -6 16 -3 10
14 -4 15 1 32 16 53 18 26 26 30 51 25 26 -5 29 -3 23 14 -8 25 24 79 66 115
35 29 51 31 69 10z m176 -53 c-17 -17 -30 -22 -45 -17 -28 9 -27 29 2 22 32
-9 50 6 43 34 -7 23 -7 23 9 4 14 -18 13 -21 -9 -43z m-310 -307 c9 -22 -23
-65 -47 -65 -12 0 -19 5 -16 13 2 6 11 12 20 12 27 0 42 22 27 40 -9 11 -9 15
-1 15 6 0 14 -7 17 -15z"/>
<path d="M813 2553 c-20 -7 -15 -36 13 -92 21 -39 32 -51 50 -51 32 0 31 29
-2 91 -27 49 -39 59 -61 52z m50 -64 c24 -48 27 -69 8 -69 -6 0 -61 103 -61
115 0 3 6 5 13 5 7 0 25 -23 40 -51z"/>
<path d="M880 2535 c0 -28 24 -65 42 -65 22 0 24 27 2 58 -17 25 -44 30 -44 7z
m38 -20 c14 -31 15 -35 4 -35 -8 0 -32 43 -32 55 0 15 19 1 28 -20z"/>
<path d="M765 2480 c-9 -15 13 -67 31 -74 22 -8 29 23 13 52 -16 29 -34 38
-44 22z"/>
<path d="M490 2221 c0 -11 12 -29 26 -40 44 -35 63 -2 21 37 -29 27 -47 28
-47 3z"/>
<path d="M417 2213 c-17 -16 -3 -43 43 -82 84 -71 116 -26 35 48 -43 39 -64
49 -78 34z m68 -44 c46 -42 55 -59 33 -59 -20 1 -100 78 -93 90 9 15 11 14 60
-31z"/>
<path d="M395 2130 c-8 -13 39 -60 60 -60 22 0 18 23 -8 48 -25 24 -42 28 -52
12z m60 -31 c4 -6 4 -13 1 -16 -7 -7 -46 26 -46 39 0 10 36 -8 45 -23z"/>
<path d="M1323 2389 c-7 -7 -13 -35 -13 -61 0 -51 5 -47 -75 -63 -12 -3 -28 6
-45 25 -14 17 -39 33 -56 36 -36 7 -36 8 -55 -127 -15 -108 -7 -150 32 -183
29 -25 31 -25 55 -9 14 9 28 29 31 45 5 26 10 29 37 26 42 -4 39 -24 -9 -51
-50 -28 -53 -53 -7 -50 46 2 36 -16 -24 -47 -34 -17 -48 -30 -46 -42 2 -11 -5
-18 -20 -20 -20 -3 -23 -8 -20 -45 2 -35 -1 -43 -18 -48 -25 -8 -22 -24 6 -39
10 -6 21 -13 24 -14 3 -2 -8 -14 -24 -27 l-30 -24 27 -12 c27 -12 37 -39 15
-39 -40 -1 -46 -43 -7 -53 27 -7 24 -26 -6 -37 -22 -8 -24 -13 -15 -30 18 -33
35 -34 92 -3 61 32 69 56 21 61 -40 4 -42 17 -7 49 29 27 27 48 -4 48 -33 1
-36 12 -8 30 31 21 34 45 6 45 -27 0 -25 12 5 40 30 28 32 40 6 40 -11 0 -20
9 -23 23 -4 19 0 22 31 22 20 0 47 4 59 9 l24 8 -8 -89 c-12 -123 -9 -150 20
-193 l25 -38 -39 -36 c-21 -19 -53 -42 -69 -51 -39 -19 -41 -38 -3 -29 64 14
114 47 153 100 42 58 68 78 112 88 33 8 38 -17 7 -34 -19 -10 -19 -13 19 -69
39 -57 103 -121 121 -121 6 0 10 -4 10 -8 0 -4 -37 -5 -82 -1 -46 4 -144 13
-218 19 -74 6 -166 17 -205 24 l-70 12 0 149 c0 83 -4 156 -8 163 -5 7 -2 19
7 28 21 21 20 37 -4 59 -19 17 -21 16 -67 -35 -27 -30 -46 -56 -43 -59 3 -3
16 -6 30 -6 l25 -1 3 -142 c3 -138 2 -142 -17 -142 -16 0 -21 6 -21 27 0 15
-10 37 -22 50 -19 20 -20 27 -10 43 25 40 16 50 -35 43 -59 -7 -62 -10 -35
-29 12 -8 22 -26 22 -39 0 -14 9 -30 20 -37 34 -22 25 -44 -22 -54 -46 -10
-60 -33 -37 -60 9 -11 26 -13 73 -8 46 4 96 -2 206 -25 216 -45 504 -81 641
-81 21 0 28 -5 31 -22 4 -28 27 -30 42 -3 6 11 11 21 11 22 0 0 27 4 60 7 l60
7 -37 -21 c-79 -43 -119 -141 -85 -207 22 -42 77 -87 131 -108 25 -10 48 -26
51 -36 13 -39 100 -37 142 3 16 15 23 33 23 58 0 35 40 106 70 125 5 3 8 10 5
15 -3 4 5 6 17 2 12 -3 19 -1 15 5 -3 5 5 8 22 5 20 -3 36 4 57 22 l29 25 -37
1 c-27 0 -38 -4 -38 -15 0 -9 -9 -15 -22 -14 l-23 0 23 16 c27 19 30 38 3 23
-24 -12 -31 -13 -31 -1 0 5 10 12 23 14 18 3 16 5 -8 7 -30 2 -30 2 -5 10 25
8 25 8 -5 10 -28 1 -27 2 15 15 51 16 60 13 37 -13 -16 -17 -14 -32 4 -32 9 0
39 63 39 83 0 11 -10 9 -47 -9 -46 -24 -98 -31 -118 -16 -5 4 -18 24 -27 44
-11 24 -26 40 -43 44 -14 3 -25 8 -25 11 0 3 27 34 60 70 33 35 60 68 60 72 0
5 -30 -6 -67 -24 -126 -61 -265 -92 -428 -96 l-89 -2 2 41 c3 35 -1 45 -28 69
-43 38 -51 56 -41 90 5 15 12 97 14 182 l5 153 -39 16 c-47 18 -49 27 -8 41
44 15 51 14 44 -8 -4 -15 -1 -20 12 -20 10 0 30 -3 45 -7 23 -5 29 -2 39 19
28 61 -26 116 -81 84 -34 -21 -50 -22 -50 -3 0 7 18 17 43 22 36 8 42 13 42
34 0 23 -3 25 -47 24 -27 0 -48 3 -48 7 0 4 20 19 45 33 43 26 46 26 76 11 47
-25 72 -17 83 28 9 36 8 39 -35 83 l-44 45 -102 -7 -103 -6 -40 36 c-22 20
-46 36 -53 36 -6 0 -21 3 -32 6 -11 3 -26 -1 -32 -7z m89 -65 c21 -15 38 -29
38 -33 -1 -3 -16 -23 -35 -45 -31 -35 -38 -38 -71 -33 -50 8 -52 13 -21 45 15
16 27 39 27 53 0 46 11 48 62 13z m292 -73 c26 -28 10 -46 -27 -32 -17 7 -27
18 -27 31 0 11 -6 20 -12 20 -9 0 -9 3 1 9 17 11 38 2 65 -28z m-522 -6 l28
-24 -21 -35 c-15 -25 -18 -44 -14 -68 5 -26 2 -38 -13 -51 -19 -17 -20 -17
-37 0 -15 14 -17 28 -11 88 11 123 19 134 68 90z m438 0 c-7 -8 -23 -15 -36
-15 -12 0 -26 -5 -29 -10 -3 -6 -20 -17 -36 -26 -26 -13 -35 -13 -60 -2 -49
22 -32 42 46 54 39 7 83 12 99 13 24 1 27 -1 16 -14z m-271 -69 l42 7 -7 -43
-7 -43 57 5 c81 7 72 -10 -26 -53 -27 -11 -48 -26 -48 -34 0 -13 -37 -31 -46
-22 -3 2 3 18 13 35 17 30 17 32 -1 45 -19 14 -19 15 3 46 l22 31 -38 0 c-21
-1 -49 -7 -63 -15 -37 -21 -48 -18 -43 10 9 42 55 63 84 38 11 -9 29 -12 58
-7z m201 -57 c10 -24 11 -36 2 -50 -7 -10 -12 -28 -12 -38 0 -32 -18 -34 -34
-4 -12 24 -12 31 -1 47 12 15 12 22 -1 40 -15 25 -10 36 16 36 10 0 23 -13 30
-31z m-60 -109 c0 -10 -41 -30 -61 -30 -16 0 -9 28 9 33 31 8 52 7 52 -3z
m-192 -77 c-12 -13 -28 -23 -35 -23 -11 0 -11 4 0 28 7 15 12 36 9 47 -4 18
-2 18 22 -4 l26 -25 -22 -23z m190 5 c-2 -7 -32 -22 -65 -33 -34 -11 -65 -23
-69 -27 -12 -13 -34 -9 -41 7 -8 24 27 45 63 39 17 -3 45 1 65 9 43 19 52 20
47 5z m67 -43 c6 -8 7 -69 3 -171 -4 -87 -8 -168 -8 -178 -1 -18 -2 -18 -16 2
-8 12 -12 31 -9 45 4 15 1 30 -9 40 -20 19 -20 27 -1 63 19 35 11 150 -12 176
-12 13 -12 21 -3 38 10 18 14 19 28 9 9 -7 22 -18 27 -24z m-71 -41 c3 -9 6
-46 6 -83 l0 -67 -65 -32 c-79 -39 -85 -39 -85 -7 0 21 5 25 30 25 38 0 90 26
90 44 0 29 -24 35 -67 16 -45 -20 -53 -18 -53 14 0 19 5 21 38 18 37 -3 83 14
89 33 1 6 -1 16 -6 24 -8 12 -16 12 -53 -2 -49 -19 -78 -22 -78 -7 0 11 39 21
141 39 4 1 10 -6 13 -15z m531 -490 c-14 -7 -30 -16 -37 -20 -7 -5 -57 -10
-110 -12 -113 -4 -135 12 -30 23 37 4 92 12 122 19 64 15 93 10 55 -10z m111
-12 c17 -6 20 -11 13 -29 -5 -13 -13 -23 -19 -23 -5 0 -11 10 -11 23 -1 16 -2
18 -6 5 -2 -10 -11 -18 -19 -18 -8 0 -15 8 -15 18 -1 15 -2 15 -6 1 -2 -10
-14 -16 -29 -16 -23 0 -24 1 -8 18 22 24 61 32 100 21z m51 -48 c10 -22 10
-25 -3 -20 -9 3 -18 6 -20 6 -2 0 -4 9 -4 20 0 28 13 25 27 -6z m-154 -60 c21
-58 17 -153 -8 -226 -15 -44 -18 -46 -41 -38 -42 16 -85 54 -110 96 -35 59
-31 66 21 43 31 -14 56 -18 75 -14 40 9 39 26 0 18 -34 -6 -110 22 -110 41 0
39 113 143 145 133 5 -2 18 -26 28 -53z m127 22 c0 -19 -12 -27 -24 -16 -8 6
-12 1 -11 -18 0 -16 -5 -26 -12 -24 -17 3 -16 -4 2 -31 9 -15 11 -27 5 -37 -7
-11 -10 -8 -11 15 -1 18 -3 23 -6 12 -3 -12 -8 -15 -16 -8 -9 7 -12 1 -12 -19
0 -22 3 -26 13 -18 9 8 12 5 12 -10 0 -29 -17 -36 -29 -13 -16 29 -13 60 8 89
10 15 26 44 35 64 12 24 23 35 32 31 8 -3 14 -11 14 -17z m-65 -7 c4 -11 4
-23 1 -26 -8 -9 -36 17 -36 33 0 22 28 16 35 -7z m139 -10 c17 -16 -3 -23 -21
-7 -10 9 -25 18 -33 22 -8 3 -1 4 15 0 17 -3 34 -10 39 -15z m-24 -33 c0 -27
-16 -44 -23 -24 -5 18 3 48 14 48 5 0 9 -11 9 -24z m59 -12 c4 3 8 0 8 -7 0
-7 4 -21 8 -32 7 -20 7 -20 -6 0 -13 20 -13 19 -19 -4 -3 -14 -11 -26 -18 -29
-18 -6 -15 24 5 43 13 13 14 18 3 25 -8 5 -10 14 -5 26 8 17 9 17 12 -4 3 -12
8 -20 12 -18z m-112 -18 c-4 -9 -11 -16 -17 -16 -11 0 -14 33 -3 44 11 10 26
-11 20 -28z m19 -43 c-5 -11 -10 -13 -17 -6 -7 7 -7 17 3 32 10 18 14 19 16 6
2 -9 1 -23 -2 -32z m44 -26 c0 -4 10 -5 21 -2 15 5 19 4 15 -4 -4 -6 -13 -11
-20 -11 -8 0 -16 -10 -20 -22 -5 -19 -8 -21 -16 -8 -8 12 -10 9 -10 -13 0 -16
-4 -26 -10 -22 -5 3 -10 0 -10 -9 0 -8 5 -16 11 -18 6 -2 9 -13 7 -23 -5 -20
-5 -20 -13 0 -5 11 -13 23 -18 26 -6 4 4 27 22 53 35 53 41 76 11 46 -11 -11
-20 -28 -20 -37 0 -13 -3 -14 -11 -6 -9 9 -6 19 10 41 11 17 21 36 21 44 1 14
30 -19 30 -35z m-124 -74 c-21 -23 -26 -24 -26 -10 0 10 7 20 15 23 8 3 18 16
22 27 6 18 7 19 11 5 2 -10 -8 -30 -22 -45z m54 7 c0 -11 -7 -20 -15 -20 -8 0
-15 -8 -15 -18 0 -23 -35 -52 -63 -51 l-22 0 23 9 c12 5 22 14 22 20 0 6 5 8
12 4 8 -5 9 -2 5 9 -3 9 0 20 7 24 7 5 15 16 19 26 9 23 27 22 27 -3z m-82
-43 c2 -10 -4 -20 -13 -23 -21 -8 -25 -3 -18 24 6 25 26 24 31 -1z m94 -27
c10 -17 12 -30 7 -30 -6 0 -13 9 -16 19 -3 12 -11 17 -19 14 -10 -4 -12 0 -8
11 9 23 17 20 36 -14z m-12 -30 c9 -16 8 -18 -5 -14 -8 4 -15 11 -15 17 0 6
-3 7 -6 4 -4 -4 -1 -14 7 -23 12 -15 11 -16 -10 -9 -18 5 -22 4 -16 -6 5 -8
-1 -5 -13 5 -12 11 -20 22 -17 25 4 3 10 -1 15 -9 8 -13 10 -12 10 2 0 15 12
25 32 27 4 1 12 -8 18 -19z"/>
<path d="M1936 1224 c-19 -18 -19 -17 -4 -49 12 -27 27 -32 46 -13 22 22 8 78
-19 78 -4 0 -15 -7 -23 -16z"/>
<path d="M2518 2169 c-10 -5 -18 -19 -18 -31 0 -13 -5 -18 -14 -15 -8 3 -22
-3 -32 -14 -9 -10 -26 -19 -36 -19 -10 0 -21 -7 -25 -16 -7 -20 41 -122 62
-130 9 -4 15 -19 15 -36 0 -17 9 -38 23 -52 13 -13 21 -28 19 -35 -2 -6 6 -43
18 -82 20 -66 23 -70 48 -67 34 4 41 35 13 54 -22 16 -28 58 -11 69 7 4 8 -3
4 -20 -5 -21 -3 -27 15 -32 11 -3 21 -13 21 -23 0 -24 24 -42 45 -34 14 6 16
15 11 45 -5 31 -3 39 9 39 21 0 31 30 14 41 -8 5 -22 6 -31 3 -10 -3 -18 0
-18 6 0 7 13 10 32 8 27 -2 34 -9 42 -37 8 -27 7 -35 -7 -43 -9 -5 -17 -17
-17 -28 0 -27 36 -35 66 -15 21 14 24 21 19 48 -9 47 -55 137 -68 137 -8 0
-11 13 -9 38 3 30 -2 45 -22 69 -14 17 -26 39 -26 49 0 27 -87 134 -108 134
-9 0 -25 -5 -34 -11z m81 -47 c41 -53 60 -94 43 -100 -19 -6 -14 -22 8 -22 30
0 59 -64 41 -91 -7 -12 -11 -22 -9 -22 46 -23 74 -66 85 -131 6 -38 -11 -54
-43 -42 -14 5 -13 8 5 24 19 15 20 21 10 55 -12 46 -42 63 -83 48 -33 -13 -29
-36 7 -36 37 0 44 -13 12 -25 -20 -8 -25 -15 -20 -28 18 -44 18 -54 -1 -50
-10 2 -21 14 -24 28 -4 16 -12 24 -23 22 -19 -3 -22 9 -6 25 6 6 8 16 5 22 -9
14 -43 14 -51 1 -9 -15 17 -90 32 -90 16 0 17 -16 2 -26 -16 -10 -29 8 -50 72
-13 39 -16 61 -9 68 15 15 12 23 -10 29 -23 6 -43 51 -35 78 4 13 1 19 -9 19
-19 0 -76 97 -69 116 9 23 26 16 20 -9 -4 -12 -1 -29 4 -37 9 -12 10 -12 5 4
-4 10 -1 25 5 32 6 7 7 19 3 26 -4 7 -4 10 1 6 4 -4 14 0 22 10 12 16 14 16
32 -5 12 -15 25 -20 40 -16 22 5 30 -12 9 -19 -6 -2 -9 -12 -5 -21 5 -13 12
-15 29 -8 40 15 44 36 14 75 -22 29 -32 35 -52 30 -23 -6 -32 5 -17 19 18 18
53 5 82 -31z m-19 -29 c22 -28 13 -54 -19 -52 -10 0 -11 2 -3 6 6 2 12 13 12
24 0 14 -7 19 -29 19 -39 0 -49 27 -10 28 19 0 35 -7 49 -25z"/>
<path d="M2463 2068 c3 -9 1 -20 -5 -26 -14 -14 9 -45 29 -38 7 3 13 1 13 -4
0 -14 -34 -12 -49 3 -11 10 -13 9 -9 -3 3 -10 17 -15 42 -14 25 1 36 -3 36
-13 0 -22 26 -26 59 -8 51 26 31 56 -24 35 -22 -9 -30 -7 -40 6 -7 11 -19 15
-29 11 -15 -6 -17 -3 -11 22 4 18 2 32 -6 37 -8 5 -10 2 -6 -8z"/>
<path d="M2575 1946 c-63 -25 -74 -38 -55 -61 14 -17 40 -13 108 16 44 19 57
51 26 63 -9 3 -16 6 -17 5 -1 0 -29 -11 -62 -23z m75 -6 c0 -13 -77 -49 -102
-50 -36 0 -17 27 30 42 58 20 72 21 72 8z"/>
<path d="M2588 1869 c-26 -14 -22 -39 5 -39 27 0 70 28 62 41 -8 12 -45 11
-67 -2z m47 -8 c-16 -14 -55 -23 -55 -13 0 12 17 20 45 21 11 1 15 -3 10 -8z"/>
<path d="M200 1948 c-23 -38 -44 -122 -36 -144 4 -10 -3 -23 -16 -34 -17 -13
-23 -29 -23 -61 -1 -24 -7 -54 -13 -66 -7 -12 -12 -54 -12 -93 0 -65 2 -71 24
-82 14 -6 32 -8 40 -5 20 8 21 47 2 47 -17 0 -25 29 -19 64 6 27 18 32 43 16
13 -8 12 -10 -3 -10 -24 0 -34 -30 -15 -44 8 -6 18 -24 22 -40 6 -24 11 -28
35 -24 15 2 33 -2 40 -9 21 -23 48 2 61 56 6 27 11 60 9 73 -1 13 6 40 15 61
9 21 14 47 11 58 -4 10 -2 19 3 19 9 0 62 123 62 142 0 4 -9 12 -21 18 -28 16
-50 -3 -43 -38 7 -35 -19 -73 -37 -54 -11 10 -10 12 3 12 23 0 32 18 18 35 -9
10 -9 19 0 35 9 16 8 25 -1 36 -19 23 -40 16 -52 -15 -9 -26 -15 -29 -39 -24
-23 5 -28 2 -28 -15 0 -11 10 -27 23 -35 16 -12 18 -16 6 -16 -27 -1 -51 33
-43 63 7 29 20 40 49 41 26 0 32 35 9 52 -29 21 -53 15 -74 -19z m78 -5 c2 -8
-6 -13 -22 -13 -51 0 -77 -84 -34 -114 12 -9 30 -16 40 -16 24 0 23 27 -2 40
-29 16 -24 30 8 24 23 -5 29 -1 39 26 15 40 37 31 28 -11 -4 -18 -2 -36 5 -44
10 -12 9 -15 -9 -15 -14 0 -21 -6 -21 -19 0 -17 18 -31 40 -31 13 0 43 84 31
88 -19 6 -12 22 9 22 25 0 25 -16 0 -84 -15 -38 -27 -56 -43 -60 -17 -4 -19
-8 -9 -18 18 -18 14 -56 -9 -79 -14 -14 -17 -24 -11 -32 10 -12 0 -106 -13
-127 -7 -12 -35 -14 -35 -2 0 4 9 13 20 20 28 17 28 77 0 92 -11 6 -25 8 -30
5 -15 -10 -12 -35 5 -35 22 0 18 -18 -5 -25 -13 -4 -20 -15 -20 -31 0 -15 -6
-24 -15 -24 -10 0 -15 10 -15 30 0 19 -5 30 -14 30 -24 0 -30 21 -7 27 40 10
19 43 -29 43 -21 0 -30 -19 -30 -67 0 -26 5 -36 20 -40 28 -7 25 -23 -5 -23
-20 0 -25 6 -31 35 -10 56 4 126 27 132 20 5 27 23 9 23 -13 0 -13 56 0 81 6
10 20 19 30 19 22 0 27 15 9 26 -15 9 -5 93 16 134 13 25 22 31 42 28 15 -2
28 -9 31 -15z m20 -399 c2 -24 -2 -33 -23 -42 -21 -10 -25 -9 -25 3 0 8 7 15
15 15 25 0 31 31 9 47 -19 14 -19 15 1 11 14 -2 21 -12 23 -34z"/>
<path d="M225 1780 c-10 -16 4 -28 44 -40 25 -7 33 -6 38 6 8 20 -6 32 -44 40
-19 4 -33 2 -38 -6z m70 -21 c5 -6 3 -9 -7 -9 -24 0 -48 11 -48 22 0 10 39 1
55 -13z"/>
<path d="M167 1727 c-8 -21 9 -33 75 -56 59 -20 82 -15 76 15 -7 38 -138 73
-151 41z m116 -24 c20 -10 26 -18 19 -25 -13 -13 -113 21 -120 41 -4 11 4 12
34 6 21 -3 51 -13 67 -22z"/>
<path d="M187 1653 c-12 -12 -7 -20 18 -31 35 -16 65 -15 65 3 0 25 -64 47
-83 28z m59 -18 c20 -15 13 -18 -23 -9 -13 4 -23 10 -23 15 0 14 24 11 46 -6z"/>
<path d="M1887 1938 c-8 -31 -66 -156 -67 -143 0 6 -18 -10 -40 -35 -33 -38
-39 -42 -40 -24 0 12 10 34 22 49 20 26 20 28 5 55 -10 15 -17 35 -17 43 0 17
-37 47 -57 47 -9 0 -13 -17 -13 -54 0 -50 -3 -56 -36 -83 l-36 -29 27 -32 c15
-18 33 -32 41 -32 28 0 15 -53 -22 -91 -27 -28 -34 -42 -29 -58 8 -27 23 -27
52 1 l23 21 0 -41 c0 -22 -4 -43 -9 -46 -10 -6 -3 -54 9 -61 5 -3 16 2 24 11
16 15 19 51 16 161 -1 51 13 90 58 157 l20 28 -5 -46 c-5 -41 -3 -46 14 -46
11 0 30 11 43 25 13 14 27 25 32 25 16 0 7 -23 -29 -76 -35 -49 -41 -54 -67
-48 -29 6 -29 6 -21 -32 3 -22 20 -64 36 -95 l30 -56 77 5 c89 5 116 20 89 50
-15 16 -15 20 3 47 32 48 26 82 -16 102 -29 14 -38 15 -55 4 -39 -24 -32 -1
15 49 56 60 60 93 10 98 -24 2 -33 -2 -42 -20 -8 -18 -11 -19 -11 -5 -1 9 13
41 29 70 17 30 30 60 30 69 0 20 -29 45 -61 53 -22 5 -27 3 -32 -17z m29 -86
c-7 -15 -17 -42 -21 -59 -4 -23 -12 -33 -25 -33 -17 0 -15 7 13 63 18 35 35
62 39 60 5 -2 2 -16 -6 -31z m-202 -84 c-5 -26 -11 -35 -20 -31 -19 7 -18 32
3 55 21 23 24 20 17 -24z m222 -225 c-16 -47 -46 -52 -57 -10 -6 23 -4 30 14
37 12 5 30 9 39 9 15 1 16 -3 4 -36z"/>
<path d="M861 1686 c-17 -20 -3 -46 25 -46 27 0 30 16 10 43 -16 21 -20 21
-35 3z"/>
<path d="M2717 1663 c-14 -14 -6 -34 18 -43 40 -15 48 -90 9 -90 -13 0 -14 3
-4 15 15 18 6 45 -15 45 -8 0 -15 6 -15 13 0 7 -6 22 -14 33 -13 16 -18 17
-36 6 -11 -7 -25 -10 -30 -7 -6 4 -20 3 -31 0 -20 -7 -21 -12 -15 -79 3 -39 6
-94 6 -123 -1 -28 4 -54 10 -58 8 -5 8 -10 0 -20 -6 -8 -14 -47 -17 -88 -5
-72 -5 -74 18 -80 28 -8 56 20 39 37 -5 5 -10 25 -10 43 0 24 4 33 17 33 13 0
14 -3 5 -12 -15 -15 -16 -48 -1 -48 6 0 9 -10 8 -22 -4 -30 8 -48 31 -48 19 0
30 19 30 51 0 14 7 19 25 19 36 0 34 35 -2 48 l-28 10 28 1 c35 1 53 -32 38
-72 -6 -15 -14 -27 -18 -26 -22 4 -33 -3 -33 -19 0 -39 55 -58 80 -27 17 21
25 127 11 166 -7 22 -8 36 -1 44 12 15 6 184 -8 231 -18 58 -31 74 -61 74 -15
0 -31 -3 -34 -7z m51 -12 c15 -9 42 -93 42 -132 0 -15 -7 -29 -15 -33 -13 -5
-12 -9 5 -26 27 -27 26 -74 -2 -95 -22 -15 -22 -17 -4 -30 14 -10 18 -27 19
-72 0 -32 -3 -68 -7 -80 -11 -35 -56 -42 -56 -7 0 8 7 14 15 14 31 0 47 70 22
103 -6 10 -26 19 -42 20 -24 2 -30 -2 -30 -18 0 -13 7 -20 19 -20 11 0 21 -6
23 -12 3 -9 -6 -13 -26 -13 -26 0 -30 -4 -33 -32 -4 -40 -22 -40 -26 -1 -2 15
-8 32 -12 37 -6 6 -2 15 8 22 16 12 16 14 0 30 -9 9 -23 14 -31 11 -20 -7 -32
-74 -16 -93 15 -18 6 -29 -17 -20 -13 5 -15 14 -10 44 3 20 6 47 6 59 0 12 7
28 15 37 13 13 13 18 -3 45 -16 29 -16 33 0 61 15 26 15 31 2 38 -22 13 -31
114 -11 130 10 9 17 10 22 2 3 -5 -1 -13 -9 -16 -23 -9 -20 -60 4 -84 16 -16
25 -18 40 -10 26 14 26 30 0 30 -23 0 -26 13 -6 29 7 6 11 22 8 36 -6 34 24
34 32 0 4 -16 13 -25 26 -25 24 0 25 -9 3 -25 -21 -15 -9 -35 22 -35 29 0 40
16 36 50 -5 38 -20 60 -41 60 -22 0 -27 16 -7 23 18 8 21 8 35 -2z m-132 -74
c-20 -15 -12 -44 12 -50 12 -3 11 -5 -4 -6 -22 -1 -34 16 -34 46 0 19 33 46
39 32 1 -6 -4 -16 -13 -22z"/>
<path d="M2665 1491 c-12 -20 6 -31 46 -31 33 0 40 3 37 18 -4 20 -72 30 -83
13z m75 -11 c0 -5 -13 -10 -30 -10 -16 0 -30 5 -30 10 0 6 14 10 30 10 17 0
30 -4 30 -10z"/>
<path d="M2633 1424 c-10 -26 24 -44 81 -44 59 0 79 10 74 36 -3 16 -14 19
-76 22 -60 2 -73 0 -79 -14z m125 0 c43 -12 21 -24 -42 -24 -60 0 -84 8 -69
24 8 8 81 8 111 0z"/>
<path d="M2667 1363 c-21 -20 20 -47 58 -37 28 7 33 29 9 38 -21 8 -59 8 -67
-1z"/>
<path d="M110 1441 c-21 -6 -26 -14 -28 -46 -3 -37 9 -44 14 -9 5 32 14 44 34
44 27 0 26 -26 -1 -33 -19 -5 -21 -11 -16 -47 7 -54 23 -72 61 -68 23 2 31 8
31 23 0 14 -7 20 -22 20 -30 0 -30 19 0 23 20 3 22 7 19 37 -3 27 -1 35 12 35
11 0 16 -9 16 -29 0 -22 6 -32 22 -37 19 -6 19 -7 5 -16 -28 -15 -20 -38 13
-38 28 0 30 2 30 40 0 27 -5 43 -15 46 -21 8 -19 36 2 32 31 -6 47 -140 18
-152 -12 -4 -10 -10 11 -31 26 -26 28 -44 9 -87 -5 -13 -3 -18 9 -18 10 0 21
-18 32 -56 16 -56 14 -84 -7 -84 -7 0 -8 7 -4 18 8 21 8 21 5 52 -2 21 -4 19
-9 -9 -6 -35 -31 -56 -31 -27 0 9 5 16 10 16 19 0 10 31 -12 41 -22 9 -21 9 5
6 32 -5 36 9 6 18 -13 5 -27 1 -36 -8 -16 -15 -9 -42 8 -32 18 12 31 -7 13
-19 -13 -10 -14 -17 -5 -34 15 -28 14 -32 -8 -32 -10 0 -21 9 -24 20 -3 12
-14 20 -26 20 -22 0 -28 14 -11 25 6 3 10 13 10 21 0 21 -50 14 -64 -8 -15
-25 16 -85 46 -90 29 -4 26 -22 -5 -26 -19 -2 -28 6 -50 52 -27 55 -35 106
-17 106 6 0 10 5 10 10 0 6 -7 10 -15 10 -32 0 -47 92 -18 109 16 8 16 11 -4
28 -12 10 -26 34 -32 53 l-9 35 -1 -30 c-1 -17 6 -40 14 -53 12 -15 13 -27 6
-40 -10 -18 -2 -77 14 -102 4 -7 9 -30 10 -51 2 -21 16 -61 31 -89 24 -45 31
-50 62 -50 25 0 35 5 39 19 3 12 11 17 22 14 10 -2 24 1 32 9 8 7 25 13 39 13
24 0 25 3 24 51 -1 27 -9 64 -18 82 -9 17 -16 49 -16 71 0 22 -6 46 -13 53 -9
8 -12 29 -9 64 2 29 1 69 -2 89 -6 29 -11 35 -32 35 -31 0 -40 -23 -20 -52 20
-29 21 -68 1 -68 -8 0 -15 5 -15 10 0 6 5 10 10 10 15 0 12 28 -4 37 -8 4 -16
19 -18 33 -2 19 -10 26 -30 28 -26 3 -28 1 -28 -32 0 -29 -4 -36 -19 -36 -11
0 -22 -4 -25 -9 -12 -18 7 -41 32 -41 20 0 23 -3 14 -12 -9 -9 -18 -9 -37 0
-20 10 -25 19 -25 51 0 30 4 40 20 44 11 3 20 12 20 21 0 21 -30 34 -60 27z
m110 -396 c-15 -18 -5 -35 21 -35 10 0 19 -2 19 -4 0 -2 3 -11 6 -19 4 -11 -1
-13 -20 -10 -30 6 -42 19 -51 56 -6 23 -4 27 15 27 19 0 20 -3 10 -15z"/>
<path d="M596 1373 c-4 -9 0 -23 9 -32 13 -14 17 -14 31 1 9 9 14 24 11 32 -8
21 -43 20 -51 -1z"/>
<path d="M865 1346 c-16 -7 -41 -25 -54 -40 -14 -14 -31 -26 -38 -26 -28 0
-92 -40 -122 -77 -38 -47 -65 -123 -56 -162 9 -42 79 -118 136 -147 27 -13 49
-27 49 -30 0 -9 -103 7 -170 26 -39 12 -75 30 -90 45 -13 14 -27 25 -32 25
-17 0 -7 -20 28 -54 51 -49 130 -77 242 -83 51 -3 95 -10 98 -14 8 -13 82 -11
107 2 12 6 31 20 42 30 13 12 54 23 115 33 106 16 230 29 230 24 0 -2 -7 -21
-14 -43 -12 -35 -19 -41 -53 -47 -62 -12 -130 -28 -267 -65 -112 -30 -139 -34
-195 -29 -75 8 -144 35 -183 73 -20 19 -28 22 -28 12 0 -27 71 -88 127 -109
71 -27 212 -27 303 -2 36 11 116 27 177 38 l113 18 33 -40 c33 -37 109 -84
138 -84 8 0 22 -14 31 -30 14 -25 24 -30 53 -30 78 0 133 45 120 97 -6 24 -4
25 22 18 207 -52 418 -45 528 20 42 24 115 99 115 118 0 5 -15 -2 -32 -15
-134 -102 -349 -136 -519 -82 l-81 26 23 24 c24 25 34 70 18 79 -5 4 -9 -3 -9
-14 0 -19 -10 -26 -32 -22 -5 0 -8 -14 -8 -32 0 -43 -15 -68 -24 -39 -7 22 22
83 59 119 23 24 25 22 27 -33 0 -15 7 -22 22 -21 11 0 62 -3 112 -8 105 -9
275 8 344 34 61 23 116 61 145 102 14 18 23 34 21 36 -2 2 -23 -9 -47 -26
-105 -73 -403 -130 -468 -89 -10 6 -27 8 -37 4 -14 -5 -15 -9 -5 -15 9 -6 6
-10 -11 -14 -61 -17 -76 4 -25 35 27 18 76 102 65 113 -3 4 -24 -3 -47 -14
-40 -21 -115 -28 -137 -13 -6 4 -14 20 -18 35 -18 75 -121 94 -185 34 -55 -52
-165 -75 -202 -42 -14 14 -19 14 -30 2 -8 -7 -43 -17 -77 -20 -103 -11 -192
-38 -192 -59 0 -23 -16 -23 -24 -1 -4 10 -1 22 6 28 34 26 77 93 72 112 -4 13
0 22 10 26 9 4 16 2 16 -3 0 -6 -4 -10 -10 -10 -5 0 -10 -5 -10 -11 0 -5 15 1
33 15 19 15 46 26 61 26 31 0 76 21 97 46 13 16 10 17 -40 10 l-54 -7 30 35
c28 32 60 102 51 111 -2 3 -26 -7 -53 -20 -48 -25 -127 -34 -151 -17 -6 4 -17
24 -24 45 -21 66 -95 94 -165 63z m8 -34 c-6 -23 -18 -29 -28 -13 -5 9 24 46
31 39 2 -2 1 -14 -3 -26z m49 -2 c-5 -37 -26 -34 -30 3 -3 21 1 27 16 27 15 0
18 -6 14 -30z m51 24 c3 -3 1 -19 -5 -36 -9 -25 -13 -28 -24 -16 -15 15 -8 58
10 58 7 0 15 -3 19 -6z m31 -52 c-4 -12 -10 -22 -15 -22 -11 0 -12 44 -2 54
12 11 23 -9 17 -32z m-75 -18 c1 -1 0 -8 -4 -14 -5 -9 -10 -9 -18 -1 -20 20
-31 12 -12 -9 16 -18 15 -50 -2 -50 -18 0 -34 40 -23 59 7 14 6 21 -3 25 -6 3
4 3 23 0 19 -4 37 -8 39 -10z m88 -3 c-4 -15 2 -22 24 -30 16 -5 29 -17 29
-25 0 -22 -13 -20 -28 4 -7 11 -19 20 -28 20 -11 0 -14 5 -10 16 3 9 6 20 6
25 0 5 3 9 6 9 4 0 4 -9 1 -19z m-194 -38 c30 -67 29 -183 -2 -275 -12 -38
-26 -68 -31 -68 -4 0 -34 17 -65 38 -58 39 -115 110 -115 144 0 22 -2 22 55
-3 33 -15 57 -19 81 -15 49 10 54 28 5 20 -30 -5 -51 -1 -85 16 -25 12 -46 27
-46 33 0 49 116 157 168 157 7 0 23 -21 35 -47z m155 9 c4 -26 -22 -31 -32 -6
-10 26 -7 36 12 32 9 -2 18 -13 20 -26z m242 9 c0 -5 -19 -18 -42 -29 -24 -12
-37 -21 -30 -22 7 0 27 7 45 17 26 13 30 13 20 1 -7 -8 -10 -17 -7 -20 7 -8
-46 -48 -63 -48 -24 0 -8 25 18 28 13 2 28 7 33 12 5 5 -9 6 -31 3 -34 -4 -39
-3 -40 16 -1 15 4 21 20 21 12 0 33 7 47 14 14 8 26 14 28 15 1 1 2 -3 2 -8z
m-280 -45 c0 -26 -15 -43 -24 -28 -7 12 4 52 15 52 5 0 9 -11 9 -24z m-60 -27
c0 -27 -17 -32 -24 -6 -11 40 -8 51 9 37 8 -7 15 -21 15 -31z m160 21 c8 -14
8 -26 0 -40 -16 -29 -30 -15 -27 26 2 39 11 43 27 14z m60 -15 c0 -26 -15 -34
-23 -12 -3 6 -6 0 -6 -15 -1 -26 -17 -46 -27 -35 -8 7 35 87 46 87 6 0 10 -11
10 -25z m-125 -30 c0 -31 -19 -45 -28 -21 -8 20 4 57 17 53 6 -2 11 -16 11
-32z m-63 8 c9 -39 -13 -72 -25 -39 -7 17 2 56 13 56 4 0 10 -8 12 -17z m206
-8 c0 -13 -4 -22 -9 -19 -5 3 -9 -6 -9 -19 0 -24 -21 -42 -34 -30 -10 10 -7
17 19 47 14 16 25 33 25 38 0 4 2 8 4 8 2 0 4 -11 4 -25z m-108 -34 c0 -24
-26 -47 -33 -29 -5 17 14 59 24 52 5 -3 9 -13 9 -23z m-74 -27 c-3 -8 -10 -12
-16 -9 -6 3 -10 -4 -10 -18 0 -29 -25 -56 -33 -35 -2 7 10 32 27 56 28 40 46
43 32 6z m-53 12 c3 -8 -1 -22 -8 -33 -13 -17 -14 -16 -15 15 0 33 13 43 23
18z m148 -28 c-5 -15 -14 -29 -19 -32 -16 -10 -22 22 -6 34 8 7 14 20 14 28 0
11 3 13 10 6 7 -7 8 -19 1 -36z m-61 -14 c0 -15 -6 -24 -15 -24 -15 0 -21 40
-9 53 12 11 24 -3 24 -29z m79 -50 c-11 -29 -11 -29 -20 -6 -6 17 -4 30 9 50
16 24 17 25 20 6 2 -11 -2 -34 -9 -50z m-109 16 c0 -5 -6 -15 -13 -22 -7 -7
-16 -21 -20 -30 -7 -19 -37 -25 -37 -9 0 6 8 16 19 23 10 7 21 23 25 36 7 20
26 22 26 2z m672 -5 c-5 -29 -32 -34 -32 -7 0 22 8 32 25 32 8 0 10 -10 7 -25z
m42 17 c9 -15 -6 -52 -20 -52 -15 0 -18 18 -8 44 7 17 20 21 28 8z m-84 -22
c0 -11 -7 -20 -15 -20 -15 0 -21 21 -8 33 12 13 23 7 23 -13z m-696 1 c8 -12
-3 -41 -15 -41 -5 0 -9 11 -9 25 0 25 14 34 24 16z m96 -30 c0 -24 -18 -37
-31 -24 -13 13 -1 43 17 43 8 0 14 -9 14 -19z m-1 -67 c-27 -29 -44 -31 -29
-4 6 11 15 18 19 15 5 -3 12 7 17 23 6 21 8 23 12 9 2 -11 -6 -30 -19 -43z
m555 16 c32 -81 8 -290 -34 -290 -37 0 -140 94 -155 141 -10 29 -1 33 34 15
35 -18 117 -21 127 -5 5 9 -3 10 -30 5 -26 -5 -49 -1 -81 13 l-46 20 16 38
c17 41 43 66 90 88 48 23 61 18 79 -25z m139 4 c-8 -21 -27 -12 -31 15 -3 20
-1 21 17 12 12 -7 18 -17 14 -27z m-733 -3 c0 -39 -16 -48 -23 -13 -6 29 -1
42 14 42 5 0 9 -13 9 -29z m660 14 c7 -8 9 -22 6 -31 -6 -15 -8 -15 -26 1 -10
9 -16 23 -13 31 7 18 17 18 33 -1z m-725 -26 c0 -17 -6 -25 -22 -27 -26 -4
-27 -2 -11 33 14 31 33 28 33 -6z m1001 15 c-6 -39 -76 -61 -76 -24 0 14 7 20
23 20 12 0 29 5 37 10 19 12 19 13 16 -6z m-966 -39 c0 -23 -4 -25 -42 -24
-41 1 -42 1 -14 10 17 4 34 15 38 24 13 22 18 19 18 -10z m668 -8 c5 -37 -15
-34 -20 3 -3 19 -1 29 6 27 6 -2 12 -16 14 -30z m145 -8 c-1 -32 0 -33 13 -15
14 20 14 20 14 0 0 -30 -11 -36 -32 -17 -21 18 -25 77 -5 70 7 -2 11 -19 10
-38z m-53 -15 c0 -15 -6 -24 -15 -24 -16 0 -19 17 -9 44 9 22 24 10 24 -20z
m-47 -9 c13 -19 15 -30 8 -43 -9 -14 -10 -12 -11 13 0 21 -3 26 -9 16 -5 -7
-13 -11 -17 -8 -5 3 -10 -9 -10 -26 -1 -29 0 -29 13 -11 14 18 14 17 11 -11
-2 -19 -8 -30 -18 -29 -9 1 -15 -8 -15 -21 0 -32 25 -13 48 36 10 21 22 39 27
39 13 0 19 -26 9 -41 -8 -12 -10 -12 -19 1 -8 12 -10 11 -10 -8 0 -13 -6 -30
-14 -38 -8 -7 -16 -19 -18 -26 -4 -10 -8 -10 -21 1 -18 14 -23 56 -8 65 4 3 6
17 3 31 -4 25 14 85 27 85 3 0 14 -12 24 -25z m-670 -10 c14 -19 15 -25 4 -25
-17 0 -49 34 -40 43 10 11 17 8 36 -18z m-75 -10 c11 -23 10 -25 -7 -16 -23
13 -35 41 -17 41 7 0 18 -11 24 -25z m822 8 c0 -10 -5 -25 -10 -33 -16 -23
-32 8 -17 32 15 23 27 23 27 1z m20 -30 c0 -26 -16 -47 -29 -39 -8 5 -6 15 6
31 22 29 23 30 23 8z m-60 -92 c0 -22 -16 -36 -24 -22 -8 12 3 41 15 41 5 0 9
-9 9 -19z m31 -46 c12 8 11 -36 -1 -55 -9 -13 -11 -13 -20 0 -13 19 -13 30 0
30 6 0 10 -5 10 -12 0 -6 3 -8 6 -5 4 4 0 17 -8 29 -8 13 -12 30 -9 38 4 11 6
9 9 -8 2 -12 8 -20 13 -17z m-121 -19 c-11 -15 -40 -22 -40 -11 0 2 5 16 12
30 10 23 13 24 26 11 13 -12 13 -18 2 -30z m60 17 c0 -21 3 -24 10 -13 5 8 12
11 17 7 4 -5 2 -12 -5 -16 -10 -6 -7 -14 8 -34 24 -30 17 -36 -12 -10 -20 18
-25 4 -6 -15 13 -13 8 -15 -16 -6 -21 8 -20 30 2 39 15 6 15 8 1 18 -18 14
-30 42 -22 51 14 13 23 4 23 -21z m-27 -40 c-3 -7 -19 -13 -37 -12 -29 0 -29
1 -8 9 12 5 25 17 29 26 4 12 8 13 13 3 5 -7 6 -18 3 -26z"/>
<path d="M722 1188 c-15 -15 -15 -61 0 -76 20 -20 48 -14 60 13 22 49 -25 98
-60 63z m45 -55 c-16 -16 -18 -16 -34 1 -17 17 -17 18 4 12 12 -4 24 -2 28 4
4 6 10 9 13 5 3 -3 -2 -13 -11 -22z"/>
<path d="M1432 898 c-27 -27 -3 -73 35 -66 27 5 25 72 -2 76 -11 1 -26 -3 -33
-10z"/>
<path d="M193 1274 c-7 -3 -13 -12 -13 -20 0 -12 10 -14 43 -12 29 2 42 8 42
18 0 15 -47 24 -72 14z"/>
<path d="M550 1265 c-26 -31 18 -71 47 -42 19 19 8 57 -16 57 -10 0 -24 -7
-31 -15z"/>
<path d="M220 1221 c-25 -4 -51 -10 -57 -14 -16 -10 -17 -43 -2 -52 17 -11
140 16 146 31 6 17 -14 45 -31 43 -6 -1 -31 -5 -56 -8z m70 -26 c0 -8 -8 -15
-19 -15 -10 0 -40 -3 -66 -7 -38 -5 -47 -3 -43 8 9 28 128 41 128 14z"/>
<path d="M2587 1149 c-21 -12 -57 -90 -57 -122 0 -11 -10 -31 -22 -44 -12 -13
-21 -36 -21 -53 0 -17 -6 -30 -13 -30 -18 0 -87 -117 -80 -136 14 -36 73 -21
61 16 -3 9 3 28 14 41 16 19 22 22 32 12 11 -11 9 -13 -8 -13 -23 0 -38 -25
-22 -36 6 -4 4 -15 -6 -31 -9 -13 -14 -31 -11 -39 9 -23 44 -16 62 12 12 17
20 22 27 15 31 -31 61 7 32 39 -22 24 -9 27 16 4 14 -13 16 -21 8 -42 -16 -42
-29 -53 -49 -42 -22 12 -45 -11 -36 -35 9 -26 53 -40 72 -24 26 21 74 112 74
139 0 15 9 31 21 38 22 14 53 77 44 91 -3 5 2 11 10 14 17 7 45 97 45 147 0
30 -5 39 -27 49 -22 10 -29 9 -41 -3 -14 -14 -14 -17 1 -34 21 -23 22 -52 3
-78 -14 -18 -16 -18 -32 -2 -15 15 -15 16 2 15 13 -1 20 6 22 21 2 12 -1 22
-7 22 -6 0 -11 15 -11 34 0 36 -23 55 -45 36 -9 -8 -14 -5 -18 10 -6 22 -14
24 -40 9z m33 -18 c0 -5 -9 -11 -20 -14 -23 -6 -43 -51 -35 -78 8 -24 45 -35
56 -18 6 9 3 18 -6 25 -19 14 -19 24 0 24 9 0 20 11 25 25 14 36 44 34 37 -2
-3 -18 0 -34 10 -45 15 -17 14 -18 -5 -18 -24 0 -29 -19 -10 -38 15 -15 45
-16 54 -1 4 6 10 27 15 47 6 28 4 38 -9 48 -22 16 -7 32 16 17 35 -22 -1 -172
-40 -165 -10 2 -18 -2 -18 -8 0 -5 5 -10 10 -10 18 0 11 -46 -11 -74 -15 -20
-27 -25 -42 -20 -17 5 -19 3 -12 -12 14 -32 8 -62 -20 -109 -29 -50 -49 -64
-72 -49 -21 13 -12 29 14 26 17 -2 28 6 43 30 11 18 20 39 20 47 0 21 -30 51
-51 51 -28 0 -33 -20 -10 -36 27 -19 18 -38 -11 -23 -18 9 -24 8 -35 -7 -7
-10 -13 -21 -13 -26 0 -4 -7 -8 -15 -8 -17 0 -20 35 -4 46 6 3 8 17 5 30 -5
18 -3 22 9 18 23 -9 32 26 10 42 -14 10 -22 11 -32 2 -19 -15 -36 -48 -37 -70
-1 -23 -20 -27 -24 -5 -5 23 59 117 80 117 14 0 16 6 12 30 -5 24 -1 35 24 58
20 19 28 32 21 39 -10 10 12 85 32 110 13 15 39 18 39 4z m8 -33 c-3 -7 -11
-13 -19 -13 -19 0 -24 -35 -7 -47 9 -7 8 -8 -7 -6 -34 6 -14 78 22 78 8 0 13
-6 11 -12z"/>
<path d="M2593 985 c-7 -19 23 -44 55 -45 32 0 28 27 -8 45 -36 19 -39 19 -47
0z m48 -15 c14 -11 18 -19 11 -20 -19 0 -52 19 -52 30 0 16 16 12 41 -10z"/>
<path d="M2534 945 c-10 -26 2 -39 61 -69 52 -26 58 -27 73 -13 20 20 7 37
-55 72 -52 29 -71 31 -79 10z m111 -48 c31 -24 9 -32 -32 -13 -53 24 -76 43
-68 55 6 11 58 -11 100 -42z"/>
<path d="M2525 871 c-6 -11 41 -51 61 -51 25 0 27 23 3 41 -26 20 -54 24 -64
10z m56 -21 c17 -13 19 -19 9 -19 -16 0 -50 22 -50 33 0 12 18 6 41 -14z"/>
<path d="M230 1140 c-14 -3 -26 -14 -28 -23 -3 -13 4 -17 26 -17 40 0 62 9 62
25 0 16 -28 23 -60 15z"/>
<path d="M1324 1065 c-4 -9 -2 -21 4 -27 15 -15 44 -1 40 19 -4 23 -36 29 -44
8z"/>
<path d="M383 963 c-18 -7 -16 -53 2 -53 18 0 49 -45 40 -60 -11 -17 -23 -11
-18 10 4 14 -1 22 -20 29 -13 5 -27 19 -30 30 -6 22 -23 27 -47 11 -12 -8 -13
-14 -3 -41 11 -27 10 -34 -4 -44 -27 -20 -9 -49 25 -40 20 5 24 4 16 -5 -19
-19 -57 -7 -73 22 -14 24 -14 28 2 46 15 16 15 21 3 37 -12 17 -17 18 -40 7
-15 -6 -29 -19 -33 -27 -7 -21 41 -112 78 -147 16 -15 29 -31 28 -35 -4 -24 5
-42 35 -75 19 -21 37 -46 41 -57 8 -25 102 -101 125 -101 9 0 25 9 35 20 24
27 5 51 -34 44 -19 -4 -32 0 -45 15 -19 20 -16 51 4 51 6 0 8 -5 5 -10 -11
-17 16 -41 37 -34 12 3 27 -1 39 -11 15 -15 21 -15 34 -5 19 16 19 34 0 50 -9
8 -13 21 -9 36 6 24 -1 29 -35 25 -7 -2 -10 2 -6 8 17 29 71 -13 62 -48 -7
-28 18 -48 38 -31 26 21 17 48 -33 100 -27 27 -56 66 -65 86 -10 20 -26 38
-37 41 -11 3 -16 11 -13 19 6 17 -64 144 -80 143 -7 0 -18 -3 -24 -6z m61 -64
c17 -31 26 -60 23 -75 -3 -18 0 -24 14 -24 22 0 49 -37 49 -67 0 -13 6 -23 14
-23 20 0 86 -77 86 -100 0 -11 -5 -20 -11 -20 -5 0 -9 8 -7 18 8 47 -58 92
-89 61 -19 -19 -4 -40 24 -33 22 6 24 4 18 -15 -4 -15 -1 -29 10 -42 17 -17
17 -19 1 -25 -9 -4 -24 1 -34 9 -11 10 -27 14 -42 10 -21 -5 -23 -3 -12 8 6 7
12 19 12 26 0 20 -35 16 -54 -6 -16 -18 -17 -22 -3 -41 23 -34 55 -52 77 -45
26 8 26 -11 1 -25 -17 -9 -29 -2 -78 44 -54 50 -57 56 -45 76 12 20 11 21 -6
16 -14 -5 -27 2 -46 24 -27 33 -33 55 -16 65 18 11 10 24 -17 27 -21 2 -37 16
-61 52 -38 58 -40 99 -4 104 25 4 29 -10 8 -28 -12 -9 -13 -18 -5 -38 24 -62
59 -77 100 -43 18 15 21 22 13 31 -9 9 -17 9 -32 1 -28 -15 -37 0 -11 20 21
15 21 18 5 40 -21 30 -20 39 3 39 10 0 21 -9 24 -20 3 -12 14 -20 26 -20 22 0
28 -14 11 -25 -18 -11 8 -34 30 -28 11 3 20 12 20 20 0 25 -30 73 -45 73 -8 0
-15 7 -15 15 0 8 8 15 18 15 12 0 29 -18 46 -51z"/>
<path d="M395 800 c-29 -11 -50 -39 -39 -50 11 -11 76 18 81 36 5 16 -18 23
-42 14z"/>
<path d="M404 738 c-84 -57 -61 -100 27 -51 58 31 73 47 65 68 -9 24 -40 18
-92 -17z m81 12 c6 -10 -81 -69 -102 -70 -26 0 -11 21 34 50 51 33 59 35 68
20z"/>
<path d="M451 679 c-33 -20 -37 -42 -9 -47 9 -2 28 8 43 20 23 20 25 26 13 35
-11 10 -21 8 -47 -8z"/>
<path d="M2306 670 c-25 -27 -46 -53 -46 -57 0 -5 -14 -14 -31 -22 -17 -7 -35
-23 -40 -35 -6 -11 -27 -29 -47 -38 -20 -10 -52 -30 -71 -46 -27 -22 -32 -33
-27 -50 10 -31 44 -28 58 6 10 24 12 25 16 7 2 -11 -4 -26 -17 -36 -42 -34
-16 -79 30 -52 26 16 29 16 47 0 18 -16 20 -16 32 -1 11 12 11 20 2 35 -7 11
-8 19 -2 19 5 0 15 -10 21 -22 10 -19 8 -25 -21 -51 -31 -27 -33 -28 -51 -11
-18 16 -21 16 -36 1 -23 -23 -3 -67 30 -67 33 0 115 55 135 90 9 16 25 30 34
30 20 0 78 47 78 64 0 7 11 18 25 24 24 11 77 76 98 119 8 18 6 27 -8 43 -33
36 -76 18 -52 -22 8 -12 6 -23 -6 -42 -20 -29 -39 -33 -57 -11 -11 13 -9 15
11 13 19 -3 24 2 25 22 0 14 4 38 8 54 9 30 -7 50 -33 41 -8 -3 -11 0 -8 9 7
17 -11 36 -34 36 -9 0 -37 -22 -63 -50z m84 19 c0 -6 -6 -9 -14 -6 -16 6 -52
-17 -66 -43 -13 -25 22 -71 41 -53 10 10 9 15 -1 28 -13 15 -8 19 21 16 9 -1
22 5 29 14 13 16 40 21 40 7 0 -4 -6 -17 -14 -28 -10 -13 -11 -25 -5 -35 15
-23 10 -30 -16 -23 -30 7 -34 -10 -8 -38 24 -27 39 -22 67 19 20 28 23 40 15
55 -14 26 -2 36 18 15 16 -15 16 -19 1 -50 -8 -18 -28 -47 -43 -65 -22 -27
-33 -32 -52 -27 -21 5 -24 3 -18 -14 10 -32 -38 -75 -76 -67 -26 5 -29 3 -29
-20 0 -16 -12 -37 -32 -56 -59 -55 -108 -68 -122 -33 -8 21 10 28 33 13 17
-10 25 -9 47 8 45 33 51 50 32 84 l-17 30 24 -6 c33 -8 33 15 1 53 -20 23 -27
26 -38 15 -10 -10 -10 -16 0 -33 11 -18 11 -23 -5 -34 -16 -12 -16 -17 -5 -35
18 -29 7 -38 -18 -15 -18 17 -21 17 -46 0 -20 -13 -29 -14 -38 -5 -8 8 -4 16
16 31 17 12 25 26 21 35 -4 12 0 14 21 8 21 -5 26 -3 26 14 0 31 -23 45 -46
27 -18 -14 -18 -15 5 -12 13 1 26 -3 28 -10 3 -9 -4 -10 -28 -3 -33 10 -65 -3
-54 -20 3 -5 0 -12 -6 -16 -16 -9 -30 17 -18 33 23 27 107 73 123 67 11 -4 16
-1 16 12 0 26 40 64 66 64 17 0 22 4 17 16 -4 10 8 30 33 55 36 37 74 52 74
28z m1 -33 c-7 -8 -21 -12 -31 -9 -25 7 -37 -21 -19 -45 13 -15 12 -16 -3 -3
-22 17 -23 29 -1 53 20 22 72 26 54 4z"/>
<path d="M2307 563 c-11 -11 -8 -19 18 -47 28 -30 45 -33 45 -8 0 38 -43 76
-63 55z m50 -49 c-10 -10 -37 16 -37 34 0 13 4 12 22 -5 12 -13 19 -25 15 -29z"/>
<path d="M2243 553 c-22 -8 -14 -39 23 -87 26 -34 42 -46 57 -44 35 5 31 31
-13 86 -42 53 -45 54 -67 45z m61 -63 c32 -41 37 -60 16 -60 -14 0 -80 91 -74
102 9 14 20 7 58 -42z"/>
<path d="M669 564 c-16 -20 1 -50 26 -46 9 2 26 -4 36 -14 21 -18 25 -44 9
-44 -6 0 -10 8 -8 18 2 12 -5 18 -27 20 -16 2 -38 11 -47 19 -14 13 -20 13
-33 3 -20 -17 -19 -30 6 -57 18 -18 20 -25 10 -37 -7 -8 -10 -20 -6 -26 8 -13
42 -13 50 0 3 6 11 10 17 10 6 0 3 -9 -7 -20 -10 -11 -26 -20 -35 -20 -26 0
-60 42 -54 66 6 24 -17 47 -38 39 -19 -7 -41 -53 -32 -67 16 -25 129 -99 146
-95 13 4 18 0 18 -14 0 -22 27 -40 144 -97 111 -55 131 -59 152 -27 9 14 14
32 10 40 -6 17 -46 21 -46 5 0 -15 -43 -12 -65 4 -13 9 -16 19 -11 32 8 18 9
18 17 -3 8 -23 33 -31 44 -14 3 5 21 7 39 4 29 -4 35 -2 41 17 5 15 2 26 -6
31 -10 6 -8 9 9 9 28 0 39 25 21 46 -13 16 -101 64 -118 64 -5 0 -23 14 -41
30 -18 17 -41 30 -51 30 -10 0 -19 4 -19 9 0 13 -109 101 -125 101 -7 0 -18
-7 -26 -16z m93 -44 c30 -26 45 -46 41 -55 -4 -11 3 -15 24 -15 34 0 73 -25
73 -46 0 -10 6 -13 18 -10 23 7 116 -44 120 -66 2 -10 -1 -18 -7 -18 -6 0 -11
7 -11 15 0 20 -44 47 -71 43 -30 -4 -49 -35 -29 -48 10 -7 18 -5 26 5 16 21
24 19 24 -6 0 -12 8 -23 20 -26 11 -3 20 -14 20 -24 0 -21 -12 -24 -40 -9 -13
7 -21 6 -30 -5 -18 -21 -30 -18 -27 6 3 32 -19 34 -39 5 -20 -32 -9 -50 42
-66 30 -10 38 -9 56 6 20 19 20 19 17 -6 -4 -22 -9 -25 -38 -23 -53 2 -133 43
-128 64 4 14 -1 17 -27 12 -40 -6 -91 36 -81 68 6 17 3 19 -18 14 -51 -13
-155 64 -142 104 9 31 39 28 31 -3 -5 -19 1 -30 25 -50 17 -14 39 -26 50 -26
20 0 59 33 59 49 0 20 -22 22 -41 5 -24 -21 -35 -13 -19 15 9 18 7 25 -17 45
-25 22 -26 25 -10 31 11 5 25 1 36 -9 11 -10 25 -14 36 -10 14 6 17 4 13 -8
-9 -23 11 -39 34 -27 10 5 18 16 18 23 0 21 -58 66 -75 60 -9 -4 -15 0 -15 10
0 27 33 18 82 -24z m229 -170 c22 -13 26 -50 4 -50 -8 0 -15 9 -15 20 0 23
-31 41 -38 22 -2 -7 -8 -12 -14 -12 -6 0 -6 6 2 15 15 18 34 19 61 5z"/>
<path d="M745 416 c-27 -27 -33 -56 -12 -56 16 0 57 42 57 58 0 23 -21 22 -45
-2z m25 -15 c-12 -23 -29 -35 -37 -27 -7 7 26 46 39 46 5 0 4 -9 -2 -19z"/>
<path d="M786 378 c-46 -53 -48 -111 -4 -92 23 10 90 105 84 120 -10 26 -44
14 -80 -28z m64 22 c0 -17 -64 -99 -77 -100 -22 0 -14 21 23 66 34 43 54 55
54 34z"/>
<path d="M852 337 c-25 -26 -29 -57 -8 -57 17 0 58 49 53 64 -6 19 -23 16 -45
-7z"/>
<path d="M1910 384 c-30 -15 -70 -28 -89 -30 -18 -2 -40 -9 -48 -15 -8 -7 -40
-14 -71 -16 -82 -4 -116 -16 -120 -40 -2 -11 4 -25 12 -32 13 -11 20 -9 42 8
31 25 74 28 74 6 0 -8 -4 -15 -10 -15 -5 0 -10 5 -10 10 0 18 -29 11 -40 -10
-6 -12 -21 -20 -36 -20 -22 0 -25 -4 -22 -27 3 -26 6 -28 41 -26 31 2 37 -1
37 -18 0 -15 5 -20 23 -17 16 2 22 9 21 26 0 12 3 22 8 22 17 0 8 -50 -11 -60
-33 -17 -68 -12 -74 10 -7 25 -33 26 -47 1 -7 -13 -7 -28 0 -45 8 -22 16 -26
49 -26 46 0 151 36 151 52 0 6 6 6 15 -2 18 -15 78 -6 95 15 7 8 27 15 44 15
32 0 122 46 146 75 12 15 12 21 -1 43 -8 15 -22 26 -31 24 -12 -2 -15 3 -11
19 4 13 0 27 -8 33 -8 6 -14 22 -14 36 0 36 -45 37 -115 4z m100 1 c12 -14 8
-15 -26 -9 -31 4 -45 1 -63 -13 -28 -23 -22 -63 10 -63 16 0 19 5 14 20 -7 23
-2 25 26 9 15 -7 24 -7 34 1 15 12 35 6 35 -11 0 -5 -11 -15 -25 -21 -18 -8
-24 -17 -19 -30 6 -21 -6 -24 -24 -6 -21 21 -38 -6 -24 -37 14 -31 34 -32 79
-4 26 16 32 26 27 41 -4 15 -2 19 7 16 8 -3 15 -14 17 -26 4 -23 -44 -59 -107
-80 -29 -10 -36 -10 -47 6 -12 16 -13 16 -14 0 0 -36 -80 -64 -107 -37 -7 7
-18 3 -35 -14 -31 -31 -131 -55 -153 -37 -20 16 -19 50 0 50 8 0 15 -6 15 -14
0 -22 16 -28 55 -20 48 9 73 44 56 80 -14 31 -36 27 -36 -6 -1 -31 -22 -38
-27 -8 -2 13 -8 22 -13 21 -53 -8 -60 -7 -63 10 -3 13 3 17 26 17 22 0 31 6
36 22 5 22 6 22 19 4 18 -24 37 -13 37 21 0 25 -2 25 -46 20 -26 -2 -50 -11
-55 -18 -6 -10 -11 -11 -19 -3 -19 19 13 34 84 41 50 4 66 3 66 -7 0 -7 12 0
26 15 22 24 31 27 65 22 27 -4 39 -1 39 7 0 11 41 33 90 50 24 7 27 7 40 -9z
m-15 -26 c11 -17 -4 -24 -24 -12 -21 13 -37 5 -44 -22 -4 -18 -5 -18 -6 2 -2
33 58 59 74 32z m45 -94 c0 -17 -9 -29 -30 -40 -33 -17 -50 -13 -50 12 0 12 3
13 15 3 17 -14 35 -5 35 19 0 10 3 21 7 24 13 14 23 6 23 -18z"/>
<path d="M1795 300 c-9 -15 14 -118 31 -135 8 -8 22 -11 30 -8 13 5 15 15 10
55 -10 70 -22 98 -45 98 -11 0 -23 -5 -26 -10z m51 -61 c17 -69 17 -69 1 -69
-15 0 -37 62 -37 104 0 46 23 24 36 -35z"/>
<path d="M1874 285 c-9 -22 10 -70 29 -73 12 -3 17 4 17 23 0 49 -33 85 -46
50z m30 -21 c3 -9 6 -23 6 -32 0 -21 -15 -5 -25 26 -7 25 9 31 19 6z"/>
<path d="M1743 254 c-9 -24 10 -68 30 -72 13 -3 17 3 17 23 0 51 -33 85 -47
49z m33 -29 c6 -23 0 -45 -10 -34 -10 12 -15 59 -6 59 5 0 12 -11 16 -25z"/>
<path d="M1094 326 c-12 -31 3 -48 36 -41 38 8 70 -2 70 -23 0 -13 -2 -13 -14
4 -13 16 -18 17 -36 6 -11 -7 -31 -10 -44 -6 -18 4 -27 1 -35 -14 -12 -22 -2
-35 37 -47 17 -5 21 -12 17 -26 -10 -30 24 -37 47 -10 13 17 18 19 18 8 0 -27
-29 -48 -58 -41 -38 9 -42 13 -42 35 0 25 -25 35 -45 19 -21 -17 -20 -70 1
-70 13 0 14 3 4 15 -15 18 -6 45 16 45 10 0 14 -5 10 -15 -11 -29 67 -59 100
-37 23 15 36 52 23 68 -17 21 -28 17 -35 -11 -8 -34 -26 -32 -22 2 3 24 -1 28
-27 33 -40 7 -41 36 -2 32 16 -2 35 2 43 9 11 9 14 8 14 -4 0 -19 24 -29 39
-14 24 24 12 44 -31 55 -27 7 -44 8 -46 2 -2 -6 -10 -10 -18 -10 -16 0 -19 26
-4 35 16 10 130 -22 144 -40 9 -13 15 -15 20 -7 11 18 72 14 92 -5 13 -13 19
-14 22 -5 6 19 131 16 139 -3 8 -24 -5 -31 -20 -11 -9 13 -24 17 -52 14 -35
-3 -40 -7 -43 -29 -4 -33 27 -50 35 -19 6 23 23 27 23 5 0 -10 10 -15 30 -15
20 0 30 -5 30 -15 0 -9 -10 -15 -26 -15 -17 0 -28 -6 -31 -20 -6 -24 -12 -25
-28 -3 -16 22 -35 8 -35 -28 0 -28 1 -29 51 -29 43 0 52 3 56 20 7 26 29 20
25 -6 -5 -25 -1 -22 -63 -34 -62 -12 -109 -5 -109 16 0 19 -16 18 -24 -1 -11
-30 -106 -12 -106 20 0 19 -8 19 -27 -1 -10 -10 -28 -14 -49 -12 -18 2 -30 0
-27 -5 3 -5 24 -7 47 -6 22 1 51 -3 64 -10 13 -7 43 -11 67 -10 25 2 47 0 51
-4 11 -11 116 -7 154 6 38 13 51 46 30 73 -18 20 -29 17 -40 -11 -8 -21 -16
-25 -50 -25 -34 0 -40 3 -40 22 0 20 1 20 19 4 21 -19 41 -14 41 10 0 8 8 14
18 14 10 0 26 6 36 13 15 11 16 18 8 32 -7 13 -7 24 1 36 8 13 7 21 -2 33 -15
18 -115 32 -144 19 -14 -7 -29 -5 -49 5 -16 8 -40 11 -52 8 -13 -3 -39 1 -58
9 -19 7 -58 17 -86 21 -43 5 -53 4 -58 -10z m414 -86 c10 -17 10 -20 -3 -20
-9 0 -18 7 -21 15 -8 20 -41 19 -53 -2 -9 -15 -10 -16 -11 -2 0 23 9 29 44 29
20 0 36 -7 44 -20z"/>
<path d="M1297 255 c-17 -16 -33 -117 -22 -134 3 -6 15 -11 25 -11 23 0 32 27
34 102 1 55 -11 69 -37 43z m33 -13 c0 -35 -25 -122 -34 -119 -21 8 -3 127 19
127 8 0 15 -4 15 -8z"/>
<path d="M1232 238 c-17 -17 -16 -78 2 -78 21 0 40 61 23 77 -10 10 -15 10
-25 1z"/>
<path d="M1361 211 c-13 -23 -14 -68 -3 -75 27 -16 53 62 28 83 -12 10 -17 9
-25 -8z"/>
</g>
</svg>
